<svg width="45" height="60" viewBox="0 0 45 60" fill="none" xmlns="http://www.w3.org/2000/svg">
<path d="M0 5C0 2.23858 2.23858 0 5 0H40C42.7614 0 45 2.23858 45 5V40C45 42.7614 42.7614 45 40 45H5C2.23858 45 0 42.7614 0 40V5Z" fill="#2BC5B4"/>
<path d="M6.34375 55.0898C6.34375 56.0326 6.08724 56.7539 5.57422 57.2539C5.0638 57.7513 4.32812 58 3.36719 58H1.78516V52.2891H3.53516C4.42318 52.2891 5.11328 52.5352 5.60547 53.0273C6.09766 53.5195 6.34375 54.207 6.34375 55.0898ZM5.64062 55.1133C5.64062 54.3685 5.45312 53.8073 5.07812 53.4297C4.70573 53.0521 4.15104 52.8633 3.41406 52.8633H2.44922V57.4258H3.25781C4.04948 57.4258 4.64453 57.2318 5.04297 56.8438C5.44141 56.4531 5.64062 55.8763 5.64062 55.1133ZM10.1562 58L10.0273 57.3906H9.99609C9.78255 57.6589 9.56901 57.8411 9.35547 57.9375C9.14453 58.0312 8.88021 58.0781 8.5625 58.0781C8.13802 58.0781 7.80469 57.9688 7.5625 57.75C7.32292 57.5312 7.20312 57.2201 7.20312 56.8164C7.20312 55.9518 7.89453 55.4987 9.27734 55.457L10.0039 55.4336V55.168C10.0039 54.832 9.93099 54.5846 9.78516 54.4258C9.64193 54.2643 9.41146 54.1836 9.09375 54.1836C8.73698 54.1836 8.33333 54.293 7.88281 54.5117L7.68359 54.0156C7.89453 53.901 8.125 53.8112 8.375 53.7461C8.6276 53.681 8.88021 53.6484 9.13281 53.6484C9.64323 53.6484 10.0208 53.7617 10.2656 53.9883C10.513 54.2148 10.6367 54.5781 10.6367 55.0781V58H10.1562ZM8.69141 57.543C9.09505 57.543 9.41146 57.4323 9.64062 57.2109C9.8724 56.9896 9.98828 56.6797 9.98828 56.2812V55.8945L9.33984 55.9219C8.82422 55.9401 8.45182 56.0208 8.22266 56.1641C7.99609 56.3047 7.88281 56.5247 7.88281 56.8242C7.88281 57.0586 7.95312 57.237 8.09375 57.3594C8.23698 57.4818 8.4362 57.543 8.69141 57.543ZM14.7383 56.832C14.7383 57.2305 14.5898 57.5378 14.293 57.7539C13.9961 57.9701 13.5794 58.0781 13.043 58.0781C12.4753 58.0781 12.0326 57.9883 11.7148 57.8086V57.207C11.9206 57.3112 12.1406 57.3932 12.375 57.4531C12.612 57.513 12.8398 57.543 13.0586 57.543C13.3971 57.543 13.6576 57.4896 13.8398 57.3828C14.0221 57.2734 14.1133 57.1081 14.1133 56.8867C14.1133 56.7201 14.0404 56.5781 13.8945 56.4609C13.7513 56.3411 13.4701 56.2005 13.0508 56.0391C12.6523 55.8906 12.3685 55.7617 12.1992 55.6523C12.0326 55.5404 11.9076 55.4141 11.8242 55.2734C11.7435 55.1328 11.7031 54.9648 11.7031 54.7695C11.7031 54.4206 11.8451 54.1458 12.1289 53.9453C12.4128 53.7422 12.8021 53.6406 13.2969 53.6406C13.7578 53.6406 14.2083 53.7344 14.6484 53.9219L14.418 54.4492C13.9883 54.2721 13.599 54.1836 13.25 54.1836C12.9427 54.1836 12.7109 54.2318 12.5547 54.3281C12.3984 54.4245 12.3203 54.5573 12.3203 54.7266C12.3203 54.8411 12.349 54.9388 12.4062 55.0195C12.4661 55.1003 12.5612 55.1771 12.6914 55.25C12.8216 55.3229 13.0716 55.4284 13.4414 55.5664C13.9492 55.7513 14.2917 55.9375 14.4688 56.125C14.6484 56.3125 14.7383 56.5482 14.7383 56.832ZM18.7266 58V55.2305C18.7266 54.8815 18.6471 54.6211 18.4883 54.4492C18.3294 54.2773 18.0807 54.1914 17.7422 54.1914C17.2917 54.1914 16.9622 54.3138 16.7539 54.5586C16.5482 54.8034 16.4453 55.2044 16.4453 55.7617V58H15.7969V51.9219H16.4453V53.7617C16.4453 53.9831 16.4349 54.1667 16.4141 54.3125H16.4531C16.5807 54.1068 16.7617 53.9453 16.9961 53.8281C17.2331 53.7083 17.5026 53.6484 17.8047 53.6484C18.3281 53.6484 18.7201 53.7734 18.9805 54.0234C19.2435 54.2708 19.375 54.6654 19.375 55.207V58H18.7266ZM22.7031 53.6484C23.2656 53.6484 23.7018 53.8411 24.0117 54.2266C24.3242 54.6094 24.4805 55.1523 24.4805 55.8555C24.4805 56.5586 24.3229 57.1055 24.0078 57.4961C23.6953 57.8841 23.2604 58.0781 22.7031 58.0781C22.4245 58.0781 22.1693 58.0273 21.9375 57.9258C21.7083 57.8216 21.5156 57.6628 21.3594 57.4492H21.3125L21.1758 58H20.7109V51.9219H21.3594V53.3984C21.3594 53.7292 21.349 54.026 21.3281 54.2891H21.3594C21.6615 53.862 22.1094 53.6484 22.7031 53.6484ZM22.6094 54.1914C22.1667 54.1914 21.8477 54.319 21.6523 54.5742C21.457 54.8268 21.3594 55.2539 21.3594 55.8555C21.3594 56.457 21.4596 56.888 21.6602 57.1484C21.8607 57.4062 22.1823 57.5352 22.625 57.5352C23.0234 57.5352 23.3203 57.3906 23.5156 57.1016C23.7109 56.8099 23.8086 56.3919 23.8086 55.8477C23.8086 55.2904 23.7109 54.875 23.5156 54.6016C23.3203 54.3281 23.0182 54.1914 22.6094 54.1914ZM29.3125 55.8555C29.3125 56.5534 29.1367 57.099 28.7852 57.4922C28.4336 57.8828 27.9479 58.0781 27.3281 58.0781C26.9453 58.0781 26.6055 57.9883 26.3086 57.8086C26.0117 57.6289 25.7826 57.3711 25.6211 57.0352C25.4596 56.6992 25.3789 56.306 25.3789 55.8555C25.3789 55.1576 25.5534 54.6146 25.9023 54.2266C26.2513 53.8359 26.7357 53.6406 27.3555 53.6406C27.9544 53.6406 28.4297 53.8398 28.7812 54.2383C29.1354 54.6367 29.3125 55.1758 29.3125 55.8555ZM26.0508 55.8555C26.0508 56.4023 26.1602 56.819 26.3789 57.1055C26.5977 57.3919 26.9193 57.5352 27.3438 57.5352C27.7682 57.5352 28.0898 57.3932 28.3086 57.1094C28.5299 56.8229 28.6406 56.4049 28.6406 55.8555C28.6406 55.3112 28.5299 54.8984 28.3086 54.6172C28.0898 54.3333 27.7656 54.1914 27.3359 54.1914C26.9115 54.1914 26.5911 54.3307 26.375 54.6094C26.1589 54.888 26.0508 55.3034 26.0508 55.8555ZM33.0859 58L32.957 57.3906H32.9258C32.7122 57.6589 32.4987 57.8411 32.2852 57.9375C32.0742 58.0312 31.8099 58.0781 31.4922 58.0781C31.0677 58.0781 30.7344 57.9688 30.4922 57.75C30.2526 57.5312 30.1328 57.2201 30.1328 56.8164C30.1328 55.9518 30.8242 55.4987 32.207 55.457L32.9336 55.4336V55.168C32.9336 54.832 32.8607 54.5846 32.7148 54.4258C32.5716 54.2643 32.3411 54.1836 32.0234 54.1836C31.6667 54.1836 31.263 54.293 30.8125 54.5117L30.6133 54.0156C30.8242 53.901 31.0547 53.8112 31.3047 53.7461C31.5573 53.681 31.8099 53.6484 32.0625 53.6484C32.5729 53.6484 32.9505 53.7617 33.1953 53.9883C33.4427 54.2148 33.5664 54.5781 33.5664 55.0781V58H33.0859ZM31.6211 57.543C32.0247 57.543 32.3411 57.4323 32.5703 57.2109C32.8021 56.9896 32.918 56.6797 32.918 56.2812V55.8945L32.2695 55.9219C31.7539 55.9401 31.3815 56.0208 31.1523 56.1641C30.9258 56.3047 30.8125 56.5247 30.8125 56.8242C30.8125 57.0586 30.8828 57.237 31.0234 57.3594C31.1667 57.4818 31.3659 57.543 31.6211 57.543ZM36.8594 53.6406C37.0495 53.6406 37.2201 53.6562 37.3711 53.6875L37.2812 54.2891C37.1042 54.25 36.9479 54.2305 36.8125 54.2305C36.4661 54.2305 36.1693 54.3711 35.9219 54.6523C35.6771 54.9336 35.5547 55.2839 35.5547 55.7031V58H34.9062V53.7188H35.4414L35.5156 54.5117H35.5469C35.7057 54.2331 35.8971 54.0182 36.1211 53.8672C36.3451 53.7161 36.5911 53.6406 36.8594 53.6406ZM41.0859 57.4258H41.0508C40.7513 57.8607 40.3034 58.0781 39.707 58.0781C39.1471 58.0781 38.7109 57.8867 38.3984 57.5039C38.0885 57.1211 37.9336 56.5768 37.9336 55.8711C37.9336 55.1654 38.0898 54.6172 38.4023 54.2266C38.7148 53.8359 39.1497 53.6406 39.707 53.6406C40.2878 53.6406 40.7331 53.8516 41.043 54.2734H41.0938L41.0664 53.9648L41.0508 53.6641V51.9219H41.6992V58H41.1719L41.0859 57.4258ZM39.7891 57.5352C40.2318 57.5352 40.5521 57.4154 40.75 57.1758C40.9505 56.9336 41.0508 56.5443 41.0508 56.0078V55.8711C41.0508 55.2643 40.9492 54.832 40.7461 54.5742C40.5456 54.3138 40.224 54.1836 39.7812 54.1836C39.401 54.1836 39.1094 54.332 38.9062 54.6289C38.7057 54.9232 38.6055 55.3398 38.6055 55.8789C38.6055 56.4258 38.7057 56.8385 38.9062 57.1172C39.1068 57.3958 39.401 57.5352 39.7891 57.5352Z" fill="white"/>
<path d="M18.9478 7H9.26034C8.01392 7 7 8.01392 7 9.26034V15.0728C7 16.3195 8.01392 17.3334 9.26034 17.3334H18.9478C20.1945 17.3334 21.2084 16.3195 21.2084 15.0728V9.26034C21.2084 8.01392 20.1945 7 18.9478 7Z" fill="white"/>
<path d="M18.9478 19.9165H9.26034C8.01392 19.9165 7 20.9304 7 22.1771V35.7396C7 36.986 8.01392 37.9999 9.26034 37.9999H18.9478C20.1945 37.9999 21.2084 36.986 21.2084 35.7396V22.1771C21.2084 20.9304 20.1945 19.9165 18.9478 19.9165Z" fill="white"/>
<path d="M35.7398 27.6665H26.0523C24.8057 27.6665 23.7917 28.6804 23.7917 29.9271V35.7396C23.7917 36.986 24.8057 37.9999 26.0523 37.9999H35.7398C36.9862 37.9999 38.0002 36.986 38.0002 35.7396V29.9271C38.0002 28.6804 36.9862 27.6665 35.7398 27.6665Z" fill="white"/>
<path d="M35.7398 7H26.0523C24.8057 7 23.7917 8.01392 23.7917 9.26034V22.8228C23.7917 24.0695 24.8057 25.0834 26.0523 25.0834H35.7398C36.9862 25.0834 38.0002 24.0695 38.0002 22.8228V9.26034C38.0002 8.01392 36.9862 7 35.7398 7V7Z" fill="white"/>
</svg>
