<svg width="27" height="26" viewBox="0 0 27 26" fill="none" xmlns="http://www.w3.org/2000/svg">
<path d="M26.6971 13C26.6971 20.1797 20.8768 26 13.6971 26C6.51736 26 0.697052 20.1797 0.697052 13C0.697052 5.82026 6.51736 -4.57764e-05 13.6971 -4.57764e-05C20.8768 -4.57764e-05 26.6971 5.82026 26.6971 13Z" fill="black" fill-opacity="0.28"/>
<g clip-path="url(#clip0)">
<path d="M17.6359 6.30594L15.7968 6.30299C13.7307 6.30299 12.3955 7.67289 12.3955 9.79317V11.4024H10.5464C10.3866 11.4024 10.2572 11.5319 10.2572 11.6917V14.0232C10.2572 14.183 10.3868 14.3124 10.5464 14.3124H12.3955V20.1957C12.3955 20.3554 12.5249 20.4848 12.6847 20.4848H15.0972C15.257 20.4848 15.3864 20.3553 15.3864 20.1957V14.3124H17.5484C17.7082 14.3124 17.8376 14.183 17.8376 14.0232L17.8384 11.6917C17.8384 11.615 17.8079 11.5415 17.7538 11.4872C17.6996 11.4329 17.6258 11.4024 17.5491 11.4024H15.3864V10.0382C15.3864 9.38257 15.5426 9.04972 16.3967 9.04972L17.6356 9.04928C17.7952 9.04928 17.9246 8.91974 17.9246 8.7601V6.59512C17.9246 6.43563 17.7954 6.30624 17.6359 6.30594Z" fill="white"/>
</g>
<defs>
<clipPath id="clip0">
<rect width="14.1818" height="14.1818" fill="white" transform="translate(7.00009 6.30299)"/>
</clipPath>
</defs>
</svg>
