<svg width="27" height="26" viewBox="0 0 27 26" fill="none" xmlns="http://www.w3.org/2000/svg">
<path d="M26.0912 13C26.0912 20.1797 20.2709 26 13.0912 26C5.91147 26 0.091156 20.1797 0.091156 13C0.091156 5.82026 5.91147 -4.57764e-05 13.0912 -4.57764e-05C20.2709 -4.57764e-05 26.0912 5.82026 26.0912 13Z" fill="black" fill-opacity="0.28"/>
<path fill-rule="evenodd" clip-rule="evenodd" d="M17.592 6.30299H7.9048C7.07047 6.30299 6.3942 7.03374 6.3942 7.93572V18.4377C6.3942 19.3393 7.07047 20.0704 7.9048 20.0704H17.592C18.4263 20.0704 19.1026 19.3393 19.1026 18.4377V7.93572C19.1026 7.03374 18.4263 6.30299 17.592 6.30299ZM15.5285 8.45389C15.5285 8.21656 15.7064 8.02392 15.9254 8.02392H17.1168C17.3362 8.02392 17.514 8.21656 17.514 8.45389V9.7449C17.514 9.98223 17.3362 10.1749 17.1168 10.1749H15.9254C15.7064 10.1749 15.5285 9.98223 15.5285 9.7449V8.45389ZM12.7631 10.5614C14.1129 10.5614 15.2072 11.7442 15.2072 13.2027C15.2072 14.6616 14.1129 15.8441 12.7631 15.8441C11.4137 15.8441 10.3194 14.6616 10.3194 13.2027C10.3194 11.7442 11.4137 10.5614 12.7631 10.5614ZM17.9113 18.3494C17.9113 18.5867 17.7335 18.7798 17.5141 18.7798H7.98284C7.76343 18.7798 7.58561 18.5867 7.58561 18.3494V11.8958H9.1742C8.96727 12.2184 8.89725 12.8204 8.89725 13.2026C8.89725 15.5064 10.6318 17.381 12.7632 17.381C14.8949 17.381 16.6295 15.5064 16.6295 13.2026C16.6295 12.8204 16.5792 12.2278 16.3227 11.8958H17.9113V18.3494Z" fill="white"/>
</svg>
