<svg width="26" height="26" viewBox="0 0 26 26" fill="none" xmlns="http://www.w3.org/2000/svg">
<path d="M26 13C26 20.1797 20.1797 26 13 26C5.82031 26 0 20.1797 0 13C0 5.82026 5.82031 -4.57764e-05 13 -4.57764e-05C20.1797 -4.57764e-05 26 5.82026 26 13Z" fill="black" fill-opacity="0.28"/>
<path d="M7.79141 6.31529C6.70816 6.31529 5.99991 7.02661 5.99991 7.96154C5.99991 8.87582 6.68706 9.60742 7.74985 9.60742H7.7704C8.87484 9.60742 9.56218 8.87582 9.56218 7.96154C9.54153 7.02661 8.87484 6.31529 7.79141 6.31529Z" fill="white"/>
<path d="M6.18709 10.9082H9.35389V20.4357H6.18709V10.9082Z" fill="white"/>
<path d="M17.1269 10.6846C15.4186 10.6846 14.273 12.2899 14.273 12.2899V10.9082H11.1061V20.4357H14.2728V15.1152C14.2728 14.8304 14.2935 14.546 14.3771 14.3423C14.6061 13.7735 15.1271 13.1843 16.0019 13.1843C17.1478 13.1843 17.6062 14.058 17.6062 15.3388V20.4357H20.7727V14.9728C20.7727 12.0464 19.2103 10.6846 17.1269 10.6846Z" fill="white"/>
</svg>
