<svg width="27" height="26" viewBox="0 0 27 26" fill="none" xmlns="http://www.w3.org/2000/svg">
<path d="M26.6063 13C26.6063 20.1797 20.786 26 13.6063 26C6.42654 26 0.606232 20.1797 0.606232 13C0.606232 5.82026 6.42654 -4.57764e-05 13.6063 -4.57764e-05C20.786 -4.57764e-05 26.6063 5.82026 26.6063 13Z" fill="black" fill-opacity="0.28"/>
<path fill-rule="evenodd" clip-rule="evenodd" d="M21.4227 6.55061C20.7662 6.9377 20.0408 7.21921 19.2655 7.36984C18.6479 6.71325 17.7653 6.30299 16.7881 6.30299C14.915 6.30299 13.3949 7.81701 13.3949 9.68421C13.3949 9.94942 13.424 10.2065 13.4823 10.4541C10.6612 10.3129 8.16038 8.9684 6.4852 6.9201C6.19275 7.42134 6.02576 8.00283 6.02576 8.62208C6.02576 9.7945 6.6248 10.8296 7.53616 11.436C6.98042 11.4197 6.45604 11.266 5.99749 11.0145V11.0557C5.99749 12.6946 7.16773 14.0619 8.72186 14.3713C8.43736 14.4507 8.13696 14.4906 7.82728 14.4906C7.60861 14.4906 7.39524 14.47 7.18849 14.4305C7.62054 15.7733 8.87339 16.7513 10.359 16.7775C9.19764 17.6847 7.73319 18.2254 6.14327 18.2254C5.86937 18.2254 5.59857 18.21 5.33351 18.1791C6.83552 19.1369 8.6207 19.697 10.5371 19.697C16.7815 19.697 20.195 14.5455 20.195 10.0769C20.195 9.92968 20.1923 9.78291 20.1866 9.63872C20.8497 9.16194 21.4257 8.56672 21.879 7.88868C21.2711 8.15732 20.6164 8.33927 19.9299 8.42081C20.631 8.00283 21.1691 7.34023 21.4227 6.55061Z" fill="white"/>
</svg>
